<svg width="20" height="16" viewBox="0 0 20 16" fill="none" xmlns="http://www.w3.org/2000/svg">
<g clip-path="url(#clip0_202_404)">
<path d="M12.4112 8.47168C11.7275 7.82419 10.8217 7.46333 9.88 7.46333C8.93834 7.46333 8.03247 7.82419 7.34874 8.47168L4.29561 11.3592C2.54561 12.9498 3.80811 15.9905 6.17061 15.8717C7.45186 15.8373 8.49249 15.1811 9.87686 15.2061C11.3112 15.1811 12.3769 15.7592 13.6644 15.8717C15.9862 15.9248 17.1862 12.9186 15.4612 11.3592L12.4112 8.47168ZM17.6675 4.22793C16.4737 3.99356 15.5612 5.32168 15.3237 6.46543C14.6112 10.0061 18.0425 10.6811 18.8456 7.24668C19.1737 5.77481 18.655 4.44668 17.6675 4.22793ZM12.6081 6.14043C13.7956 6.14043 14.7612 4.79043 14.7612 3.13418C14.6425 -0.85332 10.5737 -0.85332 10.4581 3.13418C10.4581 4.79043 11.4237 6.14043 12.6081 6.14043ZM4.43624 6.46543C4.20186 5.32168 3.28624 3.99356 2.09249 4.22793C-0.120006 4.78731 0.817494 9.50293 2.97999 9.51543C4.20499 9.47481 4.77061 8.05293 4.43624 6.46543ZM7.15187 6.14043C8.33625 6.14043 9.30186 4.79043 9.30186 3.13418C9.18624 -0.85332 5.1175 -0.85332 4.99874 3.13418C4.99874 4.79043 5.96437 6.14043 7.15187 6.14043Z" fill="#FF5B2E"/>
</g>
<defs>
<clipPath id="clip0_202_404">
<rect width="19" height="16" fill="white" transform="translate(0.380005)"/>
</clipPath>
</defs>
</svg>
